<?xml version="1.0" encoding="UTF-8"?>
<svg id="Layer_1" data-name="Layer 1" xmlns="http://www.w3.org/2000/svg" viewBox="0 0 432 432">
  <defs>
    <style>
      .cls-1 {
        fill: #fff;
      }

      .cls-2 {
        fill: #3a6ea5;
      }
    </style>
  </defs>
  <circle class="cls-2" cx="216" cy="216" r="216"/>
  <path class="cls-1" d="M222.91,216.47c-17.62-17.5-33.93-33.68-50.21-49.89-7.79-7.75-15.61-15.49-23.31-23.33-9.56-9.73-9.63-22.78-.26-32.58,2.19-2.29,4.44-4.51,6.71-6.72,9.99-9.72,23.05-9.87,32.96-.13,13.18,12.97,26.18,26.13,39.26,39.21,18.02,18.03,35.69,36.44,54.21,53.93,10.35,9.78,10.03,28.21,.05,37.93-31.15,30.34-61.63,61.36-92.4,92.1-11.24,11.23-23.81,11.2-35.07,0-1.65-1.64-3.31-3.29-4.95-4.95-10.28-10.38-10.49-23.3-.25-33.62,21.01-21.16,42.12-42.21,63.26-63.24,2.92-2.91,6.22-5.44,9.99-8.72Z"/>
</svg>